<svg width="863" height="641" viewBox="0 0 863 641" fill="none" xmlns="http://www.w3.org/2000/svg">
<path d="M806.154 521.874C806.154 513.14 799.076 506.004 790.284 506.004C787.773 506.004 785.489 506.633 783.377 507.66C784.69 505.205 785.489 502.408 785.489 499.44C785.489 489.735 777.611 481.857 767.907 481.857C765.852 481.857 763.911 482.257 762.027 482.942C762.712 481.115 763.112 479.117 763.112 477.062C763.112 472.21 761.171 467.814 757.974 464.617C760.543 467.129 764.025 468.728 767.907 468.728C775.67 468.728 782.007 462.448 782.007 454.627C782.007 446.807 775.727 440.527 767.907 440.527C760.086 440.527 753.807 446.807 753.807 454.627C753.807 458.509 755.348 461.991 757.917 464.56C754.72 461.421 750.381 459.423 745.529 459.423C743.474 459.423 741.533 459.822 739.65 460.507C740.335 458.681 740.734 456.682 740.734 454.627C740.734 451.659 739.935 448.862 738.622 446.407C740.734 447.435 743.017 448.063 745.529 448.063C754.263 448.063 761.399 440.984 761.399 432.193C761.399 423.402 754.32 416.323 745.529 416.323C743.017 416.323 740.734 416.951 738.622 417.979C739.935 415.524 740.734 412.727 740.734 409.758C740.734 400.054 732.856 392.176 723.152 392.176C720.183 392.176 717.443 392.975 715.045 394.231C715.845 392.176 716.359 390.007 716.359 387.666C716.359 377.962 708.481 370.084 698.776 370.084C697.52 370.084 696.264 370.255 695.065 370.483C695.636 368.714 696.036 366.887 696.036 364.889C696.036 362.834 695.636 360.836 694.951 359.009C696.778 359.637 698.719 360.094 700.831 360.094C705.683 360.094 710.079 358.153 713.219 354.956C710.707 357.525 709.109 361.007 709.109 364.889C709.109 372.653 715.388 378.989 723.209 378.989C731.03 378.989 737.309 372.71 737.309 364.889C737.309 357.068 731.03 350.789 723.209 350.789C719.327 350.789 715.845 352.33 713.276 354.899C716.472 351.702 718.414 347.307 718.414 342.454C718.414 332.75 710.536 324.872 700.831 324.872C698.776 324.872 696.835 325.272 694.951 325.957C695.636 324.13 696.036 322.132 696.036 320.077C696.036 310.372 688.158 302.495 678.454 302.495C676.399 302.495 674.458 302.894 672.574 303.579C673.259 301.752 673.658 299.754 673.658 297.699C673.658 294.731 672.859 291.934 671.546 289.479C673.658 290.506 675.942 291.134 678.454 291.134C687.188 291.134 694.324 284.056 694.324 275.265C694.324 266.473 687.245 259.395 678.454 259.395C675.942 259.395 673.658 260.023 671.546 261.05C672.859 258.596 673.658 255.798 673.658 252.83C673.658 250.775 673.259 248.777 672.574 246.95C674.401 247.578 676.341 248.035 678.454 248.035C688.158 248.035 696.036 240.157 696.036 230.452C696.036 228.397 695.636 226.399 694.951 224.573C696.778 225.201 698.719 225.657 700.831 225.657C705.683 225.657 710.079 223.716 713.219 220.519C710.707 223.088 709.109 226.57 709.109 230.452C709.109 238.216 715.388 244.553 723.209 244.553C731.03 244.553 737.309 238.273 737.309 230.452C737.309 226.57 735.711 223.088 733.199 220.519C736.396 223.659 740.734 225.657 745.586 225.657C748.555 225.657 751.295 224.858 753.807 223.545C752.779 225.657 752.151 227.998 752.151 230.452C752.151 239.186 759.23 246.322 768.021 246.322C776.812 246.322 783.891 239.243 783.891 230.452C783.891 221.661 776.812 214.583 768.021 214.583C765.509 214.583 763.226 215.21 761.113 216.238C762.426 213.783 763.226 210.986 763.226 208.018C763.226 198.313 755.348 190.436 745.643 190.436C742.675 190.436 739.878 191.235 737.423 192.548C738.451 190.436 739.078 188.095 739.078 185.64C739.078 176.906 732 169.771 723.209 169.771C714.418 169.771 707.339 176.849 707.339 185.64C707.339 188.152 707.967 190.493 708.994 192.548C706.54 191.235 703.799 190.436 700.774 190.436C698.719 190.436 696.778 190.835 694.894 191.52C695.579 189.693 695.979 187.695 695.979 185.64C695.979 175.936 688.101 168.058 678.396 168.058C673.544 168.058 669.206 169.999 666.009 173.196C668.521 170.627 670.119 167.145 670.119 163.263C670.119 155.499 663.84 149.163 656.019 149.163C648.198 149.163 641.919 155.442 641.919 163.263C641.919 167.145 643.517 170.627 646.029 173.196C642.832 170.056 638.494 168.058 633.642 168.058C628.789 168.058 624.451 169.999 621.254 173.196C623.766 170.627 625.364 167.145 625.364 163.263C625.364 155.499 619.085 149.163 611.264 149.163C603.443 149.163 597.164 155.442 597.164 163.263C597.164 167.145 598.705 170.627 601.274 173.196C598.077 170.056 593.739 168.058 588.886 168.058C579.182 168.058 571.304 175.936 571.304 185.64C571.304 187.695 571.704 189.693 572.389 191.52C570.562 190.892 568.621 190.436 566.509 190.436C561.657 190.436 557.261 192.376 554.121 195.573C556.633 193.004 558.231 189.522 558.231 185.64C558.231 177.877 551.952 171.54 544.131 171.54C536.311 171.54 530.031 177.819 530.031 185.64C530.031 193.461 536.311 199.741 544.131 199.741C548.013 199.741 551.495 198.199 554.064 195.63C550.868 198.827 548.926 203.223 548.926 208.075C548.926 211.043 549.726 213.84 551.039 216.295C548.926 215.268 546.643 214.64 544.131 214.64C539.793 214.64 535.854 216.409 533 219.264C535.854 216.409 537.624 212.47 537.624 208.075C537.624 199.341 530.545 192.205 521.754 192.205C512.962 192.205 505.884 199.284 505.884 208.075C505.884 210.587 506.512 212.927 507.539 214.982C505.085 213.669 502.345 212.87 499.319 212.87C489.615 212.87 481.737 220.748 481.737 230.452C481.737 235.305 483.678 239.7 486.874 242.897C484.306 240.385 480.823 238.787 476.942 238.787C469.178 238.787 462.841 245.066 462.841 252.887C462.841 260.708 469.121 266.987 476.942 266.987C484.762 266.987 491.042 260.708 491.042 252.887C491.042 249.005 489.5 245.523 486.932 242.954C490.128 246.094 494.467 248.092 499.319 248.092C509.024 248.092 516.902 240.214 516.902 230.509C516.902 227.541 516.102 224.744 514.789 222.289C516.902 223.317 519.185 223.945 521.697 223.945C526.035 223.945 529.974 222.175 532.828 219.321C529.974 222.175 528.204 226.114 528.204 230.509C528.204 239.243 535.283 246.379 544.074 246.379C552.866 246.379 559.944 239.301 559.944 230.509C559.944 227.998 559.316 225.657 558.289 223.602C560.743 224.915 563.483 225.714 566.509 225.714C568.564 225.714 570.505 225.315 572.389 224.63C571.704 226.456 571.304 228.454 571.304 230.509C571.304 240.214 579.182 248.092 588.886 248.092C590.941 248.092 592.883 247.692 594.766 247.007C594.081 248.834 593.682 250.832 593.682 252.887C593.682 254.942 594.081 256.94 594.766 258.767C592.94 258.139 590.999 257.682 588.886 257.682C579.182 257.682 571.304 265.56 571.304 275.265C571.304 284.969 579.182 292.847 588.886 292.847C590.941 292.847 592.883 292.447 594.766 291.762C594.081 293.589 593.682 295.587 593.682 297.642C593.682 299.697 594.081 301.695 594.766 303.522C592.94 302.894 590.999 302.437 588.886 302.437C579.182 302.437 571.304 310.315 571.304 320.02C571.304 324.872 573.245 329.268 576.442 332.464C573.873 329.953 570.391 328.354 566.509 328.354C558.745 328.354 552.409 334.634 552.409 342.454C552.409 350.275 558.688 356.554 566.509 356.554C570.391 356.554 573.873 355.013 576.442 352.444C573.245 355.641 571.304 360.037 571.304 364.889C571.304 369.741 573.245 374.137 576.442 377.334C573.873 374.822 570.391 373.223 566.509 373.223C558.745 373.223 552.409 379.503 552.409 387.324C552.409 395.144 558.688 401.424 566.509 401.424C570.391 401.424 573.873 399.882 576.442 397.314C573.245 400.51 571.304 404.906 571.304 409.758C571.304 414.611 573.245 419.006 576.442 422.203C573.873 419.691 570.391 418.093 566.509 418.093C558.745 418.093 552.409 424.372 552.409 432.193C552.409 440.014 558.688 446.293 566.509 446.293C570.391 446.293 573.873 444.752 576.442 442.183C573.245 445.38 571.304 449.775 571.304 454.627C571.304 459.48 573.245 463.875 576.442 467.072C573.873 464.56 570.391 462.962 566.509 462.962C558.745 462.962 552.409 469.241 552.409 477.062C552.409 484.883 558.688 491.162 566.509 491.162C570.391 491.162 573.873 489.621 576.442 487.052C573.245 490.249 571.304 494.644 571.304 499.497C571.304 509.201 579.182 517.079 588.886 517.079C593.739 517.079 598.077 515.138 601.274 511.942C598.762 514.51 597.164 517.993 597.164 521.874C597.164 525.756 598.705 529.238 601.274 531.807C598.077 528.668 593.739 526.669 588.886 526.669C579.182 526.669 571.304 534.547 571.304 544.252C571.304 553.956 579.182 561.834 588.886 561.834C598.591 561.834 606.469 553.956 606.469 544.252C606.469 539.4 604.528 535.004 601.331 531.807C603.9 534.319 607.382 535.917 611.264 535.917C619.027 535.917 625.364 529.638 625.364 521.817C625.364 513.997 619.085 507.717 611.264 507.717C607.382 507.717 603.9 509.258 601.331 511.827C604.528 508.63 606.469 504.235 606.469 499.383C606.469 496.414 605.67 493.617 604.357 491.162C606.469 492.19 608.752 492.818 611.264 492.818C619.998 492.818 627.134 485.739 627.134 476.948C627.134 468.157 620.055 461.078 611.264 461.078C608.752 461.078 606.469 461.706 604.357 462.733C605.67 460.279 606.469 457.482 606.469 454.513C606.469 452.458 606.069 450.46 605.384 448.633C607.211 449.261 609.152 449.718 611.264 449.718C620.968 449.718 628.846 441.84 628.846 432.136C628.846 429.167 628.047 426.37 626.734 423.915C628.846 424.943 631.13 425.571 633.642 425.571C642.376 425.571 649.511 418.492 649.511 409.701C649.511 407.189 648.883 404.849 647.856 402.794C650.311 404.107 653.051 404.906 656.076 404.906C658.131 404.906 660.072 404.506 661.956 403.821C661.271 405.648 660.871 407.646 660.871 409.701C660.871 419.406 668.749 427.284 678.454 427.284C680.509 427.284 682.45 426.884 684.334 426.199C683.649 428.026 683.249 430.023 683.249 432.079C683.249 441.783 691.127 449.661 700.831 449.661C702.886 449.661 704.827 449.261 706.711 448.576C706.026 450.403 705.626 452.401 705.626 454.456C705.626 464.161 713.504 472.038 723.209 472.038C725.264 472.038 727.205 471.639 729.089 470.954C728.404 472.781 728.004 474.779 728.004 476.834C728.004 486.538 735.882 494.416 745.586 494.416C747.641 494.416 749.582 494.017 751.466 493.332C750.781 495.158 750.381 497.156 750.381 499.211C750.381 508.916 758.259 516.794 767.964 516.794C770.932 516.794 773.729 515.995 776.184 514.682C775.157 516.794 774.529 519.134 774.529 521.589C774.529 530.323 781.607 537.459 790.398 537.459C799.19 537.459 806.268 530.38 806.268 521.589L806.154 521.874ZM730.059 199.741C728.746 202.195 727.947 204.992 727.947 207.961C727.947 212.813 729.888 217.209 733.085 220.405C730.516 217.894 727.034 216.295 723.152 216.295C719.27 216.295 715.788 217.837 713.219 220.405C716.416 217.209 718.356 212.813 718.356 207.961C718.356 204.992 717.557 202.195 716.244 199.741C718.356 200.768 720.64 201.396 723.152 201.396C725.664 201.396 727.947 200.768 730.059 199.741ZM684.276 336.632C683.591 338.458 683.192 340.456 683.192 342.511C683.192 344.566 683.591 346.564 684.276 348.391C682.45 347.763 680.509 347.307 678.396 347.307C676.284 347.307 674.401 347.706 672.517 348.391C673.202 346.564 673.602 344.566 673.602 342.511C673.602 340.456 673.202 338.458 672.517 336.632C674.344 337.26 676.284 337.716 678.396 337.716C680.509 337.716 682.393 337.317 684.276 336.632ZM605.384 224.515C607.211 225.143 609.152 225.6 611.264 225.6C613.376 225.6 615.26 225.2 617.144 224.515C616.459 226.342 616.059 228.34 616.059 230.395C616.059 232.451 616.459 234.448 617.144 236.275C615.317 235.647 613.376 235.19 611.264 235.19C609.152 235.19 607.268 235.59 605.384 236.275C606.069 234.448 606.469 232.451 606.469 230.395C606.469 228.34 606.069 226.342 605.384 224.515ZM627.762 291.762C629.588 292.39 631.529 292.847 633.642 292.847C635.754 292.847 637.637 292.447 639.521 291.762C638.836 293.589 638.437 295.587 638.437 297.642C638.437 299.697 638.836 301.695 639.521 303.522C637.695 302.894 635.754 302.437 633.642 302.437C631.529 302.437 629.645 302.837 627.762 303.522C628.447 301.695 628.846 299.697 628.846 297.642C628.846 295.587 628.447 293.589 627.762 291.762ZM650.196 269.328C652.023 269.956 653.964 270.412 656.076 270.412C659.045 270.412 661.842 269.613 664.297 268.3C663.269 270.412 662.641 272.753 662.641 275.207C662.641 277.662 663.269 280.06 664.297 282.115C661.842 280.802 659.102 280.003 656.076 280.003C654.021 280.003 652.08 280.402 650.196 281.087C650.881 279.261 651.281 277.263 651.281 275.207C651.281 273.152 650.881 271.155 650.196 269.328ZM650.196 236.275C650.881 234.448 651.281 232.451 651.281 230.395C651.281 228.34 650.881 226.342 650.196 224.515C652.023 225.143 653.964 225.6 656.076 225.6C658.188 225.6 660.072 225.2 661.956 224.515C661.271 226.342 660.871 228.34 660.871 230.395C660.871 232.451 661.271 234.448 661.956 236.275C660.129 235.647 658.188 235.19 656.076 235.19C653.964 235.19 652.08 235.59 650.196 236.275ZM639.521 258.71C637.695 258.082 635.754 257.625 633.642 257.625C631.529 257.625 629.645 258.025 627.762 258.71C628.447 256.883 628.846 254.885 628.846 252.83C628.846 250.775 628.447 248.777 627.762 246.95C629.588 247.578 631.529 248.035 633.642 248.035C635.754 248.035 637.637 247.635 639.521 246.95C638.836 248.777 638.437 250.775 638.437 252.83C638.437 254.885 638.836 256.883 639.521 258.71ZM617.144 269.328C616.459 271.155 616.059 273.152 616.059 275.207C616.059 277.263 616.459 279.261 617.144 281.087C615.317 280.46 613.376 280.003 611.264 280.003C609.152 280.003 607.268 280.402 605.384 281.087C606.069 279.261 606.469 277.263 606.469 275.207C606.469 273.152 606.069 271.155 605.384 269.328C607.211 269.956 609.152 270.412 611.264 270.412C613.376 270.412 615.26 270.013 617.144 269.328ZM617.144 314.197C616.459 316.024 616.059 318.022 616.059 320.077C616.059 322.132 616.459 324.13 617.144 325.957C615.317 325.329 613.376 324.872 611.264 324.872C609.152 324.872 607.268 325.272 605.384 325.957C606.069 324.13 606.469 322.132 606.469 320.077C606.469 318.022 606.069 316.024 605.384 314.197C607.211 314.825 609.152 315.282 611.264 315.282C613.376 315.282 615.26 314.882 617.144 314.197ZM594.766 426.313C594.081 428.14 593.682 430.138 593.682 432.193C593.682 434.248 594.081 436.246 594.766 438.073C592.94 437.445 590.999 436.988 588.886 436.988C584.034 436.988 579.639 438.929 576.499 442.126C579.011 439.557 580.609 436.075 580.609 432.193C580.609 428.311 579.068 424.829 576.499 422.26C579.696 425.4 584.034 427.397 588.886 427.397C590.941 427.397 592.883 426.998 594.766 426.313ZM576.499 397.314C579.011 394.745 580.609 391.263 580.609 387.381C580.609 383.499 579.068 380.016 576.499 377.448C579.696 380.587 584.034 382.585 588.886 382.585C590.941 382.585 592.883 382.186 594.766 381.501C594.081 383.328 593.682 385.326 593.682 387.381C593.682 389.436 594.081 391.434 594.766 393.26C592.94 392.632 590.999 392.176 588.886 392.176C584.034 392.176 579.639 394.117 576.499 397.314ZM605.384 359.066C607.211 359.694 609.152 360.151 611.264 360.151C613.376 360.151 615.26 359.751 617.144 359.066C616.459 360.893 616.059 362.891 616.059 364.946C616.059 367.001 616.459 368.999 617.144 370.826C615.317 370.198 613.376 369.741 611.264 369.741C609.152 369.741 607.268 370.141 605.384 370.826C606.069 368.999 606.469 367.001 606.469 364.946C606.469 362.891 606.069 360.893 605.384 359.066ZM627.762 336.632C629.588 337.26 631.529 337.716 633.642 337.716C635.754 337.716 637.637 337.317 639.521 336.632C638.836 338.458 638.437 340.456 638.437 342.511C638.437 344.566 638.836 346.564 639.521 348.391C637.695 347.763 635.754 347.307 633.642 347.307C631.529 347.307 629.645 347.706 627.762 348.391C628.447 346.564 628.846 344.566 628.846 342.511C628.846 340.456 628.447 338.458 627.762 336.632ZM650.196 314.197C652.023 314.825 653.964 315.282 656.076 315.282C658.188 315.282 660.072 314.882 661.956 314.197C661.271 316.024 660.871 318.022 660.871 320.077C660.871 322.132 661.271 324.13 661.956 325.957C660.129 325.329 658.188 324.872 656.076 324.872C653.964 324.872 652.08 325.272 650.196 325.957C650.881 324.13 651.281 322.132 651.281 320.077C651.281 318.022 650.881 316.024 650.196 314.197ZM684.276 202.081C683.591 203.908 683.192 205.906 683.192 207.961C683.192 210.016 683.591 212.014 684.276 213.84C682.45 213.213 680.509 212.756 678.396 212.756C676.284 212.756 674.401 213.155 672.517 213.84C673.202 212.014 673.602 210.016 673.602 207.961C673.602 205.906 673.202 203.908 672.517 202.081C674.344 202.709 676.284 203.166 678.396 203.166C680.509 203.166 682.393 202.766 684.276 202.081ZM665.952 173.138C662.755 176.335 660.814 180.731 660.814 185.583C660.814 187.638 661.214 189.636 661.899 191.463C660.072 190.835 658.131 190.378 656.019 190.378C653.907 190.378 652.023 190.778 650.139 191.463C650.824 189.636 651.224 187.638 651.224 185.583C651.224 180.731 649.283 176.335 646.086 173.138C648.655 175.65 652.137 177.249 656.019 177.249C659.901 177.249 663.383 175.707 665.952 173.138ZM639.521 202.081C638.836 203.908 638.437 205.906 638.437 207.961C638.437 210.016 638.836 212.014 639.521 213.84C637.695 213.213 635.754 212.756 633.642 212.756C631.529 212.756 629.645 213.155 627.762 213.84C628.447 212.014 628.846 210.016 628.846 207.961C628.846 205.906 628.447 203.908 627.762 202.081C629.588 202.709 631.529 203.166 633.642 203.166C635.754 203.166 637.637 202.766 639.521 202.081ZM621.197 173.138C618 176.335 616.059 180.731 616.059 185.583C616.059 187.638 616.459 189.636 617.144 191.463C615.317 190.835 613.376 190.378 611.264 190.378C609.152 190.378 607.268 190.778 605.384 191.463C606.069 189.636 606.469 187.638 606.469 185.583C606.469 180.731 604.528 176.335 601.331 173.138C603.9 175.65 607.382 177.249 611.264 177.249C615.146 177.249 618.628 175.707 621.197 173.138ZM583.007 213.898C583.692 212.071 584.091 210.073 584.091 208.018C584.091 205.963 583.692 203.965 583.007 202.138C584.833 202.766 586.774 203.223 588.886 203.223C590.999 203.223 592.883 202.823 594.766 202.138C594.081 203.965 593.682 205.963 593.682 208.018C593.682 210.073 594.081 212.071 594.766 213.898C592.94 213.27 590.999 212.813 588.886 212.813C586.774 212.813 584.891 213.213 583.007 213.898ZM594.766 336.632C594.081 338.458 593.682 340.456 593.682 342.511C593.682 344.566 594.081 346.564 594.766 348.391C592.94 347.763 590.999 347.307 588.886 347.307C584.034 347.307 579.639 349.248 576.499 352.444C579.011 349.876 580.609 346.393 580.609 342.511C580.609 338.629 579.068 335.147 576.499 332.578C579.696 335.718 584.034 337.716 588.886 337.716C590.941 337.716 592.883 337.317 594.766 336.632ZM576.499 486.995C579.011 484.426 580.609 480.944 580.609 477.062C580.609 473.18 579.068 469.698 576.499 467.129C579.696 470.269 584.034 472.267 588.886 472.267C591.855 472.267 594.595 471.468 597.107 470.155C596.079 472.267 595.451 474.607 595.451 477.062C595.451 479.517 596.079 481.914 597.107 483.969C594.652 482.656 591.912 481.857 588.886 481.857C584.034 481.857 579.639 483.798 576.499 486.995ZM605.384 415.695C606.069 413.868 606.469 411.87 606.469 409.815C606.469 407.76 606.069 405.762 605.384 403.935C607.211 404.563 609.152 405.02 611.264 405.02C614.232 405.02 617.029 404.221 619.484 402.908C618.457 405.02 617.829 407.361 617.829 409.815C617.829 412.27 618.457 414.667 619.484 416.723C617.029 415.41 614.289 414.61 611.264 414.61C609.209 414.61 607.268 415.01 605.384 415.695ZM626.734 395.601C628.047 393.146 628.846 390.349 628.846 387.381C628.846 385.326 628.447 383.328 627.762 381.501C629.588 382.129 631.529 382.585 633.642 382.585C635.754 382.585 637.637 382.186 639.521 381.501C638.836 383.328 638.437 385.326 638.437 387.381C638.437 390.349 639.236 393.146 640.549 395.601C638.437 394.574 636.153 393.945 633.642 393.945C631.13 393.945 628.846 394.574 626.734 395.601ZM650.196 370.826C650.881 368.999 651.281 367.001 651.281 364.946C651.281 362.891 650.881 360.893 650.196 359.066C652.023 359.694 653.964 360.151 656.076 360.151C658.188 360.151 660.072 359.751 661.956 359.066C661.271 360.893 660.871 362.891 660.871 364.946C660.871 367.001 661.271 368.999 661.956 370.826C660.129 370.198 658.188 369.741 656.076 369.741C653.964 369.741 652.08 370.141 650.196 370.826ZM672.574 393.26C673.259 391.434 673.658 389.436 673.658 387.381C673.658 385.326 673.259 383.328 672.574 381.501C674.401 382.129 676.341 382.585 678.454 382.585C679.71 382.585 680.966 382.414 682.164 382.186C681.593 383.955 681.194 385.782 681.194 387.78C681.194 389.436 681.479 391.034 681.936 392.575C680.794 392.347 679.652 392.233 678.454 392.233C676.399 392.233 674.458 392.633 672.574 393.318V393.26ZM694.951 415.695C695.636 413.868 696.036 411.87 696.036 409.815C696.036 408.103 695.751 406.561 695.294 404.963C696.436 405.191 697.577 405.305 698.776 405.305C701.745 405.305 704.485 404.506 706.882 403.25C706.083 405.305 705.569 407.475 705.569 409.815C705.569 411.87 705.969 413.868 706.654 415.695C704.827 415.067 702.829 414.61 700.774 414.61C698.719 414.61 696.778 415.01 694.894 415.695H694.951ZM717.329 438.073C718.014 436.246 718.414 434.248 718.414 432.193C718.414 430.138 718.014 428.14 717.329 426.313C719.156 426.941 721.097 427.397 723.209 427.397C726.177 427.397 728.917 426.598 731.429 425.285C730.402 427.397 729.774 429.738 729.774 432.193C729.774 434.647 730.402 437.045 731.429 439.1C728.975 437.787 726.234 436.988 723.209 436.988C721.154 436.988 719.213 437.388 717.329 438.073Z" fill="#2C60F5"/>
<path d="M96.5406 558.406C104.328 558.406 110.641 552.093 110.641 544.306C110.641 536.519 104.328 530.206 96.5406 530.206C88.7534 530.206 82.4407 536.519 82.4407 544.306C82.4407 552.093 88.7534 558.406 96.5406 558.406Z" fill="#2C60F5"/>
<path d="M320.356 558.406C328.143 558.406 334.456 552.093 334.456 544.306C334.456 536.519 328.143 530.206 320.356 530.206C312.568 530.206 306.255 536.519 306.255 544.306C306.255 552.093 312.568 558.406 320.356 558.406Z" fill="#2C60F5"/>
<path d="M387.495 238.737C383.614 238.737 380.131 240.279 377.562 242.848C380.759 239.651 382.7 235.255 382.7 230.403C382.7 220.699 374.822 212.821 365.118 212.821C363.062 212.821 361.122 213.22 359.238 213.905C359.923 212.079 360.323 210.08 360.323 208.025C360.323 198.321 352.445 190.443 342.74 190.443C340.685 190.443 338.744 190.843 336.86 191.528C337.545 189.701 337.945 187.703 337.945 185.648C337.945 175.943 330.067 168.065 320.363 168.065C315.51 168.065 311.115 170.006 307.975 173.203C310.487 170.634 312.085 167.152 312.085 163.27C312.085 155.507 305.806 149.17 297.985 149.17C290.164 149.17 283.885 155.45 283.885 163.27C283.885 167.152 285.426 170.634 287.995 173.203C284.798 170.064 280.46 168.065 275.607 168.065C273.552 168.065 271.612 168.465 269.728 169.15C270.413 167.323 270.812 165.326 270.812 163.27C270.812 153.566 262.935 145.688 253.23 145.688C250.262 145.688 247.521 146.487 245.01 147.8C246.037 145.688 246.665 143.348 246.665 140.893C246.665 132.159 239.587 125.023 230.795 125.023C222.004 125.023 214.925 132.102 214.925 140.893C214.925 143.405 215.554 145.745 216.581 147.8C214.126 146.487 211.386 145.688 208.361 145.688C206.306 145.688 204.365 146.088 202.481 146.773C203.166 144.946 203.565 142.948 203.565 140.893C203.565 131.188 195.688 123.311 185.983 123.311C176.278 123.311 168.401 131.188 168.401 140.893C168.401 142.948 168.801 144.946 169.486 146.773C167.659 146.145 165.718 145.688 163.606 145.688C158.753 145.688 154.415 147.629 151.218 150.826C153.73 148.257 155.328 144.775 155.328 140.893C155.328 133.129 149.049 126.793 141.228 126.793C133.407 126.793 127.128 133.072 127.128 140.893C127.128 144.775 128.669 148.257 131.238 150.826C128.041 147.686 123.703 145.688 118.851 145.688C109.146 145.688 101.268 153.566 101.268 163.27C101.268 165.326 101.668 167.323 102.353 169.15C100.526 168.522 98.5851 168.065 96.4729 168.065C86.7683 168.065 78.8908 175.943 78.8908 185.648C78.8908 187.703 79.29 189.701 79.9751 191.528C78.1483 190.9 76.2076 190.443 74.0954 190.443C64.3909 190.443 56.513 198.321 56.513 208.025C56.513 212.878 58.454 217.273 61.6508 220.47C59.082 217.958 55.5998 216.36 51.718 216.36C43.9544 216.36 37.6177 222.639 37.6177 230.46C37.6177 238.281 43.8973 244.56 51.718 244.56C59.5387 244.56 65.818 238.281 65.818 230.46C65.818 226.578 64.2768 223.096 61.708 220.527C64.9048 223.667 69.2432 225.665 74.0954 225.665C83.8 225.665 91.6779 217.787 91.6779 208.082C91.6779 206.027 91.2783 204.03 90.5933 202.203C92.42 202.831 94.3607 203.287 96.4729 203.287C99.4413 203.287 102.239 202.488 104.693 201.175C103.666 203.288 103.038 205.628 103.038 208.082C103.038 216.817 110.116 223.952 118.907 223.952C127.699 223.952 134.777 216.874 134.777 208.082C134.777 205.571 134.15 203.23 133.122 201.175C135.577 202.488 138.317 203.287 141.342 203.287C143.397 203.287 145.338 202.888 147.222 202.203C146.537 204.03 146.137 206.027 146.137 208.082C146.137 212.935 148.078 217.33 151.275 220.527C148.706 218.015 145.224 216.417 141.342 216.417C133.578 216.417 127.242 222.696 127.242 230.517C127.242 238.338 133.521 244.617 141.342 244.617C145.224 244.617 148.706 243.076 151.275 240.507C148.078 243.704 146.137 248.099 146.137 252.952C146.137 257.804 148.078 262.2 151.275 265.397C148.706 262.885 145.224 261.286 141.342 261.286C133.578 261.286 127.242 267.566 127.242 275.387C127.242 283.207 133.521 289.487 141.342 289.487C145.224 289.487 148.706 287.945 151.275 285.377C148.078 288.573 146.137 292.969 146.137 297.821C146.137 302.673 148.078 307.069 151.275 310.266C148.706 307.754 145.224 306.155 141.342 306.155C133.578 306.155 127.242 312.435 127.242 320.256C127.242 328.077 133.521 334.356 141.342 334.356C145.224 334.356 148.706 332.815 151.275 330.246C148.078 333.443 146.137 337.838 146.137 342.69C146.137 345.659 146.937 348.456 148.25 350.911C146.137 349.883 143.854 349.255 141.342 349.255C132.608 349.255 125.472 356.334 125.472 365.125C125.472 373.916 132.551 380.995 141.342 380.995C143.854 380.995 146.137 380.367 148.25 379.339C146.937 381.794 146.137 384.591 146.137 387.56C146.137 389.615 146.537 391.613 147.222 393.44C145.395 392.812 143.454 392.355 141.342 392.355C131.638 392.355 123.76 400.232 123.76 409.937C123.76 413.476 124.845 416.787 126.671 419.585C124.445 418.214 121.819 417.415 119.022 417.415C110.744 417.415 104.065 424.095 104.065 432.372C104.065 440.649 110.744 447.328 119.022 447.328C121.819 447.328 124.445 446.529 126.671 445.159C124.845 447.956 123.76 451.21 123.76 454.807C123.76 456.862 124.16 458.859 124.845 460.686C123.018 460.058 121.077 459.602 118.965 459.602C109.26 459.602 101.382 467.479 101.382 477.184C101.382 482.036 103.323 486.432 106.52 489.629C103.951 487.117 100.469 485.519 96.5872 485.519C88.8235 485.519 82.4869 491.798 82.4869 499.619C82.4869 507.439 88.7664 513.719 96.5872 513.719C104.408 513.719 110.687 507.439 110.687 499.619C110.687 495.737 109.146 492.255 106.577 489.686C109.774 492.825 114.112 494.824 118.965 494.824C128.669 494.824 136.547 486.946 136.547 477.241C136.547 475.186 136.147 473.188 135.462 471.361C137.289 471.989 139.23 472.446 141.342 472.446C151.047 472.446 158.925 464.568 158.925 454.864C158.925 451.895 158.125 449.098 156.812 446.643C158.925 447.671 161.208 448.299 163.72 448.299C172.454 448.299 179.589 441.22 179.589 432.429C179.589 423.638 172.511 416.559 163.72 416.559C161.208 416.559 158.925 417.187 156.812 418.215C158.125 415.76 158.925 412.963 158.925 409.994C158.925 407.939 158.525 405.941 157.84 404.115C159.667 404.742 161.608 405.199 163.72 405.199C168.572 405.199 172.911 403.258 176.107 400.061C173.596 402.63 171.997 406.112 171.997 409.994C171.997 417.758 178.277 424.094 186.097 424.094C193.918 424.094 200.198 417.815 200.198 409.994C200.198 402.173 193.918 395.894 186.097 395.894C182.215 395.894 178.733 397.435 176.164 400.004C179.361 396.807 181.302 392.412 181.302 387.56C181.302 385.504 180.903 383.507 180.218 381.68C182.044 382.308 183.985 382.765 186.097 382.765C195.802 382.765 203.68 374.887 203.68 365.182C203.68 362.214 202.881 359.416 201.568 356.962C203.68 357.989 205.963 358.617 208.475 358.617C217.209 358.617 224.345 351.539 224.345 342.748C224.345 340.236 223.717 337.895 222.689 335.84C225.144 337.153 227.884 337.952 230.909 337.952C232.964 337.952 234.905 337.553 236.789 336.868C236.104 338.694 235.705 340.692 235.705 342.748C235.705 352.452 243.583 360.33 253.287 360.33C255.342 360.33 257.283 359.93 259.167 359.245C258.482 361.072 258.082 363.07 258.082 365.125C258.082 374.83 265.96 382.707 275.665 382.707C277.72 382.707 279.661 382.308 281.545 381.623C280.86 383.45 280.46 385.447 280.46 387.502C280.46 391.042 281.544 394.353 283.371 397.15C281.145 395.78 278.519 394.981 275.722 394.981C267.444 394.981 260.765 401.66 260.765 409.937C260.765 418.214 267.444 424.894 275.722 424.894C278.519 424.894 281.145 424.095 283.371 422.724C281.544 425.522 280.46 428.776 280.46 432.372C280.46 442.077 288.337 449.954 298.042 449.954C301.01 449.954 303.751 449.155 306.262 447.842C305.235 449.954 304.607 452.295 304.607 454.749C304.607 463.484 311.685 470.619 320.477 470.619C329.268 470.619 336.347 463.541 336.347 454.749C336.347 445.958 329.268 438.879 320.477 438.879C317.965 438.879 315.682 439.508 313.569 440.535C314.882 438.08 315.682 435.283 315.682 432.315C315.682 427.463 313.741 423.067 310.544 419.87C313.113 422.382 316.595 423.98 320.477 423.98C328.24 423.98 334.577 417.701 334.577 409.88C334.577 402.06 328.297 395.78 320.477 395.78C316.595 395.78 313.113 397.321 310.544 399.89C313.741 396.693 315.682 392.298 315.682 387.445C315.682 382.593 313.741 378.197 310.544 375.001C313.113 377.512 316.595 379.111 320.477 379.111C328.24 379.111 334.577 372.831 334.577 365.011C334.577 357.19 328.297 350.911 320.477 350.911C316.595 350.911 313.113 352.452 310.544 355.021C313.741 351.824 315.682 347.428 315.682 342.576C315.682 332.872 307.804 324.994 298.099 324.994C296.044 324.994 294.103 325.393 292.22 326.078C292.905 324.252 293.304 322.254 293.304 320.199C293.304 316.659 292.219 313.348 290.393 310.551C292.619 311.921 295.245 312.72 298.042 312.72C306.319 312.72 312.998 306.041 312.998 297.764C312.998 289.487 306.319 282.808 298.042 282.808C295.245 282.808 292.619 283.607 290.393 284.977C292.219 282.18 293.304 278.926 293.304 275.329C293.304 265.625 285.426 257.747 275.722 257.747C273.667 257.747 271.726 258.147 269.842 258.832C270.527 257.005 270.926 255.007 270.926 252.952C270.926 250.897 270.527 248.899 269.842 247.072C271.668 247.7 273.61 248.157 275.722 248.157C285.426 248.157 293.304 240.279 293.304 230.574C293.304 228.519 292.905 226.521 292.22 224.695C294.046 225.323 295.987 225.779 298.099 225.779C302.951 225.779 307.29 223.838 310.487 220.641C307.975 223.21 306.377 226.692 306.377 230.574C306.377 238.338 312.656 244.675 320.477 244.675C328.297 244.675 334.577 238.395 334.577 230.574C334.577 226.692 333.035 223.21 330.467 220.641C333.663 223.781 338.002 225.779 342.854 225.779C344.909 225.779 346.85 225.38 348.734 224.695C348.049 226.521 347.649 228.519 347.649 230.574C347.649 240.279 355.527 248.157 365.232 248.157C370.084 248.157 374.48 246.216 377.619 243.019C375.108 245.588 373.509 249.07 373.509 252.952C373.509 260.715 379.789 267.052 387.609 267.052C395.43 267.052 401.71 260.772 401.71 252.952C401.71 245.131 395.43 238.852 387.609 238.852L387.495 238.737ZM259.053 281.152C257.226 280.524 255.285 280.067 253.173 280.067C251.061 280.067 249.177 280.467 247.293 281.152C247.978 279.325 248.378 277.327 248.378 275.272C248.378 273.217 247.978 271.219 247.293 269.392C249.12 270.02 251.061 270.477 253.173 270.477C255.285 270.477 257.169 270.077 259.053 269.392C258.368 271.219 257.968 273.217 257.968 275.272C257.968 277.327 258.368 279.325 259.053 281.152ZM236.675 213.905C234.848 213.277 232.908 212.821 230.795 212.821C228.683 212.821 226.799 213.22 224.915 213.905C225.6 212.079 226 210.08 226 208.025C226 205.97 225.6 203.972 224.915 202.146C226.742 202.774 228.683 203.23 230.795 203.23C232.908 203.23 234.791 202.831 236.675 202.146C235.99 203.972 235.59 205.97 235.59 208.025C235.59 210.08 235.99 212.079 236.675 213.905ZM214.298 236.283C212.471 235.655 210.53 235.198 208.418 235.198C206.305 235.198 204.422 235.598 202.538 236.283C203.223 234.456 203.623 232.458 203.623 230.403C203.623 228.348 203.223 226.35 202.538 224.523C204.365 225.151 206.305 225.608 208.418 225.608C210.53 225.608 212.414 225.208 214.298 224.523C213.613 226.35 213.213 228.348 213.213 230.403C213.213 232.458 213.613 234.456 214.298 236.283ZM180.218 246.958C182.044 247.586 183.985 248.042 186.097 248.042C188.209 248.042 190.093 247.643 191.977 246.958C191.292 248.785 190.893 250.783 190.893 252.838C190.893 254.893 191.292 256.891 191.977 258.717C190.151 258.089 188.209 257.633 186.097 257.633C183.985 257.633 182.101 258.032 180.218 258.717C180.903 256.891 181.302 254.893 181.302 252.838C181.302 250.783 180.903 248.785 180.218 246.958ZM191.92 213.905C190.093 213.277 188.152 212.821 186.04 212.821C183.928 212.821 182.044 213.22 180.161 213.905C180.846 212.079 181.245 210.08 181.245 208.025C181.245 205.97 180.846 203.972 180.161 202.146C181.987 202.774 183.928 203.23 186.04 203.23C188.152 203.23 190.036 202.831 191.92 202.146C191.235 203.972 190.835 205.97 190.835 208.025C190.835 210.08 191.235 212.079 191.92 213.905ZM169.542 236.283C167.716 235.655 165.775 235.198 163.663 235.198C158.81 235.198 154.472 237.139 151.275 240.336C153.787 237.767 155.385 234.285 155.385 230.403C155.385 226.521 153.787 223.039 151.275 220.47C154.472 223.61 158.81 225.608 163.663 225.608C165.718 225.608 167.659 225.208 169.542 224.523C168.857 226.35 168.458 228.348 168.458 230.403C168.458 232.458 168.857 234.456 169.542 236.283ZM169.542 269.336C168.857 271.162 168.458 273.16 168.458 275.215C168.458 277.27 168.857 279.268 169.542 281.095C167.716 280.467 165.775 280.011 163.663 280.011C158.81 280.011 154.472 281.951 151.275 285.148C153.787 282.579 155.385 279.097 155.385 275.215C155.385 271.333 153.787 267.851 151.275 265.282C154.472 268.422 158.81 270.42 163.663 270.42C165.718 270.42 167.659 270.021 169.542 269.336ZM169.542 314.205C168.857 316.031 168.458 318.029 168.458 320.084C168.458 322.139 168.857 324.138 169.542 325.964C167.716 325.336 165.775 324.88 163.663 324.88C158.81 324.88 154.472 326.82 151.275 330.017C153.787 327.448 155.385 323.966 155.385 320.084C155.385 316.203 153.787 312.72 151.275 310.152C154.472 313.291 158.81 315.289 163.663 315.289C165.718 315.289 167.659 314.89 169.542 314.205ZM180.218 291.77C182.044 292.398 183.985 292.855 186.097 292.855C188.209 292.855 190.093 292.455 191.977 291.77C191.292 293.597 190.893 295.595 190.893 297.65C190.893 299.705 191.292 301.703 191.977 303.53C190.151 302.902 188.209 302.445 186.097 302.445C183.985 302.445 182.101 302.845 180.218 303.53C180.903 301.703 181.302 299.705 181.302 297.65C181.302 295.595 180.903 293.597 180.218 291.77ZM202.595 269.336C204.422 269.964 206.363 270.42 208.475 270.42C210.587 270.42 212.471 270.021 214.355 269.336C213.67 271.162 213.27 273.16 213.27 275.215C213.27 277.27 213.67 279.268 214.355 281.095C212.528 280.467 210.587 280.011 208.475 280.011C206.363 280.011 204.479 280.41 202.595 281.095C203.28 279.268 203.68 277.27 203.68 275.215C203.68 273.16 203.28 271.162 202.595 269.336ZM224.973 246.958C226.799 247.586 228.74 248.042 230.853 248.042C232.965 248.042 234.848 247.643 236.732 246.958C236.047 248.785 235.648 250.783 235.648 252.838C235.648 254.893 236.047 256.891 236.732 258.717C234.905 258.089 232.965 257.633 230.853 257.633C228.74 257.633 226.856 258.032 224.973 258.717C225.658 256.891 226.057 254.893 226.057 252.838C226.057 250.783 225.658 248.785 224.973 246.958ZM247.35 236.283C248.035 234.456 248.435 232.458 248.435 230.403C248.435 228.348 248.035 226.35 247.35 224.523C249.177 225.151 251.118 225.608 253.23 225.608C255.342 225.608 257.226 225.208 259.11 224.523C258.425 226.35 258.025 228.348 258.025 230.403C258.025 232.458 258.425 234.456 259.11 236.283C257.283 235.655 255.342 235.198 253.23 235.198C251.118 235.198 249.234 235.598 247.35 236.283ZM259.053 179.654C258.368 181.481 257.968 183.479 257.968 185.534C257.968 187.589 258.368 189.587 259.053 191.414C257.226 190.786 255.285 190.329 253.173 190.329C251.061 190.329 249.177 190.729 247.293 191.414C247.978 189.587 248.378 187.589 248.378 185.534C248.378 183.479 247.978 181.481 247.293 179.654C249.12 180.282 251.061 180.739 253.173 180.739C255.285 180.739 257.169 180.339 259.053 179.654ZM237.703 154.936C236.39 157.391 235.59 160.188 235.59 163.156C235.59 165.211 235.99 167.209 236.675 169.036C234.848 168.408 232.908 167.952 230.795 167.952C228.683 167.952 226.799 168.351 224.915 169.036C225.6 167.209 226 165.211 226 163.156C226 160.188 225.201 157.391 223.888 154.936C226 155.963 228.284 156.591 230.795 156.591C233.307 156.591 235.59 155.963 237.703 154.936ZM214.298 179.654C213.613 181.481 213.213 183.479 213.213 185.534C213.213 187.589 213.613 189.587 214.298 191.414C212.471 190.786 210.53 190.329 208.418 190.329C206.305 190.329 204.422 190.729 202.538 191.414C203.223 189.587 203.623 187.589 203.623 185.534C203.623 183.479 203.223 181.481 202.538 179.654C204.365 180.282 206.305 180.739 208.418 180.739C210.53 180.739 212.414 180.339 214.298 179.654ZM191.92 157.276C191.235 159.103 190.835 161.101 190.835 163.156C190.835 165.211 191.235 167.209 191.92 169.036C190.093 168.408 188.152 167.952 186.04 167.952C183.928 167.952 182.044 168.351 180.161 169.036C180.846 167.209 181.245 165.211 181.245 163.156C181.245 161.101 180.846 159.103 180.161 157.276C181.987 157.904 183.928 158.361 186.04 158.361C188.152 158.361 190.036 157.961 191.92 157.276ZM169.542 179.654C168.857 181.481 168.458 183.479 168.458 185.534C168.458 187.589 168.857 189.587 169.542 191.414C167.716 190.786 165.775 190.329 163.663 190.329C161.551 190.329 159.667 190.729 157.783 191.414C158.468 189.587 158.867 187.589 158.867 185.534C158.867 183.479 158.468 181.481 157.783 179.654C159.609 180.282 161.551 180.739 163.663 180.739C165.775 180.739 167.659 180.339 169.542 179.654ZM112.057 193.811C113.37 191.356 114.17 188.559 114.17 185.591C114.17 183.536 113.77 181.538 113.085 179.711C114.912 180.339 116.852 180.796 118.965 180.796C121.077 180.796 122.961 180.396 124.845 179.711C124.16 181.538 123.76 183.536 123.76 185.591C123.76 188.559 124.559 191.356 125.872 193.811C123.76 192.784 121.476 192.156 118.965 192.156C116.453 192.156 114.17 192.784 112.057 193.811ZM135.462 169.036C136.147 167.209 136.547 165.211 136.547 163.156C136.547 158.304 134.606 153.908 131.409 150.712C133.978 153.223 137.46 154.822 141.342 154.822C145.224 154.822 148.706 153.28 151.275 150.712C148.078 153.908 146.137 158.304 146.137 163.156C146.137 165.211 146.537 167.209 147.222 169.036C145.395 168.408 143.454 167.952 141.342 167.952C139.23 167.952 137.346 168.351 135.462 169.036ZM131.695 439.907C133.065 437.681 133.864 435.055 133.864 432.201C133.864 429.346 133.008 426.778 131.695 424.494C134.435 426.321 137.746 427.348 141.285 427.348C144.254 427.348 146.994 426.549 149.506 425.236C148.478 427.348 147.85 429.689 147.85 432.143C147.85 434.598 148.478 436.996 149.506 439.051C147.051 437.738 144.311 436.939 141.285 436.939C137.746 436.939 134.435 438.023 131.695 439.793V439.907ZM155.5 371.861C156.527 369.749 157.155 367.409 157.155 364.954C157.155 362.499 156.527 360.102 155.5 358.046C157.954 359.359 160.694 360.159 163.72 360.159C165.775 360.159 167.716 359.759 169.599 359.074C168.914 360.901 168.515 362.899 168.515 364.954C168.515 367.009 168.914 369.007 169.599 370.834C167.773 370.206 165.832 369.749 163.72 369.749C160.751 369.749 157.954 370.548 155.5 371.861ZM180.218 348.399C180.903 346.572 181.302 344.574 181.302 342.519C181.302 340.464 180.903 338.466 180.218 336.639C182.044 337.267 183.985 337.724 186.097 337.724C189.066 337.724 191.863 336.925 194.318 335.612C193.29 337.724 192.662 340.064 192.662 342.519C192.662 344.974 193.29 347.371 194.318 349.426C191.863 348.113 189.123 347.314 186.097 347.314C184.042 347.314 182.101 347.714 180.218 348.399ZM201.568 328.305C202.881 325.85 203.68 323.053 203.68 320.084C203.68 318.029 203.28 316.031 202.595 314.205C204.422 314.833 206.363 315.289 208.475 315.289C210.587 315.289 212.471 314.89 214.355 314.205C213.67 316.031 213.27 318.029 213.27 320.084C213.27 323.053 214.069 325.85 215.382 328.305C213.27 327.277 210.987 326.649 208.475 326.649C205.963 326.649 203.68 327.277 201.568 328.305ZM224.973 303.587C225.658 301.76 226.057 299.762 226.057 297.707C226.057 295.652 225.658 293.654 224.973 291.827C226.799 292.455 228.74 292.912 230.853 292.912C232.965 292.912 234.848 292.512 236.732 291.827C236.047 293.654 235.648 295.652 235.648 297.707C235.648 299.762 236.047 301.76 236.732 303.587C234.905 302.959 232.965 302.502 230.853 302.502C228.74 302.502 226.856 302.902 224.973 303.587ZM247.35 326.021C248.035 324.195 248.435 322.197 248.435 320.142C248.435 318.086 248.035 316.089 247.35 314.262C249.177 314.89 251.118 315.347 253.23 315.347C255.342 315.347 257.226 314.947 259.11 314.262C258.425 316.089 258.025 318.086 258.025 320.142C258.025 322.197 258.425 324.195 259.11 326.021C257.283 325.394 255.342 324.937 253.23 324.937C251.118 324.937 249.234 325.336 247.35 326.021ZM269.728 348.399C270.413 346.572 270.812 344.574 270.812 342.519C270.812 340.464 270.413 338.466 269.728 336.639C271.555 337.267 273.495 337.724 275.607 337.724C277.72 337.724 279.604 337.324 281.487 336.639C280.802 338.466 280.403 340.464 280.403 342.519C280.403 344.574 280.802 346.572 281.487 348.399C279.661 347.771 277.663 347.314 275.607 347.314C273.552 347.314 271.612 347.714 269.728 348.399ZM288.337 417.472C289.707 415.246 290.507 412.62 290.507 409.766C290.507 406.912 289.65 404.343 288.337 402.06C291.078 403.886 294.389 404.914 297.928 404.914C302.78 404.914 307.119 402.973 310.316 399.776C307.804 402.345 306.205 405.827 306.205 409.709C306.205 413.591 307.747 417.073 310.316 419.642C307.119 416.502 302.78 414.504 297.928 414.504C294.389 414.504 291.078 415.589 288.337 417.358V417.472ZM310.373 355.021C307.861 357.59 306.262 361.072 306.262 364.954C306.262 368.836 307.804 372.318 310.373 374.887C307.176 371.747 302.837 369.749 297.985 369.749C295.93 369.749 293.989 370.149 292.105 370.834C292.79 369.007 293.19 367.009 293.19 364.954C293.19 362.899 292.79 360.901 292.105 359.074C293.932 359.702 295.873 360.159 297.985 360.159C302.837 360.159 307.176 358.218 310.373 355.021ZM285.198 290.001C283.828 292.227 283.028 294.853 283.028 297.707C283.028 300.561 283.885 303.13 285.198 305.413C282.458 303.587 279.147 302.559 275.607 302.559C273.552 302.559 271.612 302.959 269.728 303.644C270.413 301.817 270.812 299.819 270.812 297.764C270.812 295.709 270.413 293.711 269.728 291.884C271.555 292.512 273.495 292.969 275.607 292.969C279.147 292.969 282.458 291.884 285.198 290.114V290.001ZM269.728 213.905C270.413 212.079 270.812 210.08 270.812 208.025C270.812 205.97 270.413 203.972 269.728 202.146C271.555 202.774 273.495 203.23 275.607 203.23C277.72 203.23 279.604 202.831 281.487 202.146C280.802 203.972 280.403 205.97 280.403 208.025C280.403 210.08 280.802 212.079 281.487 213.905C279.661 213.277 277.663 212.821 275.607 212.821C273.552 212.821 271.612 213.22 269.728 213.905ZM292.105 191.471C292.79 189.644 293.19 187.646 293.19 185.591C293.19 180.738 291.249 176.343 288.052 173.146C290.621 175.658 294.103 177.256 297.985 177.256C301.867 177.256 305.349 175.715 307.918 173.146C304.721 176.343 302.78 180.738 302.78 185.591C302.78 187.646 303.18 189.644 303.865 191.471C302.038 190.843 300.097 190.386 297.985 190.386C295.873 190.386 293.989 190.786 292.105 191.471ZM310.43 220.413C313.627 217.216 315.567 212.821 315.567 207.969C315.567 205.913 315.168 203.915 314.483 202.089C316.309 202.717 318.251 203.173 320.363 203.173C322.475 203.173 324.358 202.774 326.242 202.089C325.557 203.915 325.158 205.913 325.158 207.969C325.158 212.821 327.099 217.216 330.296 220.413C327.727 217.901 324.245 216.303 320.363 216.303C316.481 216.303 312.999 217.844 310.43 220.413Z" fill="#2C60F5"/>
<path d="M812.673 558.406C820.46 558.406 826.773 552.093 826.773 544.306C826.773 536.519 820.46 530.206 812.673 530.206C804.885 530.206 798.572 536.519 798.572 544.306C798.572 552.093 804.885 558.406 812.673 558.406Z" fill="#2C60F5"/>
<path d="M544.147 109.943C548.029 109.943 551.511 108.402 554.08 105.833C550.883 109.03 548.942 113.425 548.942 118.278C548.942 127.982 556.82 135.86 566.524 135.86C576.229 135.86 584.107 127.982 584.107 118.278C584.107 116.222 583.707 114.225 583.022 112.398C584.849 113.026 586.789 113.482 588.902 113.482C598.606 113.482 606.484 105.604 606.484 95.9C606.484 86.1954 598.606 78.3177 588.902 78.3177C584.049 78.3177 579.654 80.2585 576.514 83.4553C579.026 80.8865 580.624 77.4043 580.624 73.5225C580.624 65.7589 574.345 59.4224 566.524 59.4224C558.703 59.4224 552.424 65.7018 552.424 73.5225C552.424 81.3432 558.703 87.6227 566.524 87.6227C570.406 87.6227 573.888 86.0813 576.457 83.5125C573.26 86.7093 571.319 91.1048 571.319 95.9571C571.319 98.0122 571.719 100.01 572.404 101.837C570.577 101.209 568.636 100.752 566.524 100.752C561.672 100.752 557.276 102.693 554.137 105.89C556.648 103.321 558.247 99.8389 558.247 95.9571C558.247 88.1935 551.967 81.857 544.147 81.857C536.326 81.857 530.046 88.1364 530.046 95.9571C530.046 103.778 536.326 110.057 544.147 110.057V109.943Z" fill="#2C60F5"/>
<path d="M74.1531 580.841C81.9403 580.841 88.253 574.528 88.253 566.741C88.253 558.954 81.9403 552.641 74.1531 552.641C66.3658 552.641 60.0527 558.954 60.0527 566.741C60.0527 574.528 66.3658 580.841 74.1531 580.841Z" fill="#2C60F5"/>
<path d="M588.896 576.855C582.103 576.855 576.566 582.392 576.566 589.185C576.566 595.978 582.103 601.516 588.896 601.516C595.69 601.516 601.227 595.978 601.227 589.185C601.227 582.392 595.69 576.855 588.896 576.855Z" fill="#2C60F5"/>
<path d="M588.896 153.038C595.69 153.038 601.227 147.501 601.227 140.708C601.227 133.915 595.69 128.377 588.896 128.377C582.103 128.377 576.566 133.915 576.566 140.708C576.566 147.501 582.103 153.038 588.896 153.038Z" fill="#2C60F5"/>
<path d="M812.664 242.72C819.458 242.72 824.995 237.182 824.995 230.389C824.995 223.596 819.458 218.059 812.664 218.059C805.871 218.059 800.334 223.596 800.334 230.389C800.334 237.182 805.871 242.72 812.664 242.72Z" fill="#2C60F5"/>
<path d="M521.756 240.494C514.963 240.494 509.426 246.031 509.426 252.824C509.426 259.618 514.963 265.155 521.756 265.155C528.55 265.155 534.087 259.618 534.087 252.824C534.087 246.031 528.55 240.494 521.756 240.494Z" fill="#2C60F5"/>
<path d="M285.653 252.824C285.653 259.618 291.19 265.155 297.983 265.155C304.776 265.155 310.314 259.618 310.314 252.824C310.314 246.031 304.776 240.494 297.983 240.494C291.19 240.494 285.653 246.031 285.653 252.824Z" fill="#2C60F5"/>
<path d="M208.466 130.603C215.26 130.603 220.797 125.066 220.797 118.273C220.797 111.479 215.26 105.942 208.466 105.942C201.673 105.942 196.136 111.479 196.136 118.273C196.136 125.066 201.673 130.603 208.466 130.603Z" fill="#2C60F5"/>
<path d="M186.108 108.168C192.901 108.168 198.438 102.631 198.438 95.8376C198.438 89.0444 192.901 83.5071 186.108 83.5071C179.315 83.5071 173.778 89.0444 173.778 95.8376C173.778 102.631 179.315 108.168 186.108 108.168Z" fill="#2C60F5"/>
<path d="M163.714 85.8036C170.508 85.8036 176.045 80.2663 176.045 73.4731C176.045 66.6799 170.508 61.1426 163.714 61.1426C156.921 61.1426 151.384 66.6799 151.384 73.4731C151.384 80.2663 156.921 85.8036 163.714 85.8036Z" fill="#2C60F5"/>
<path d="M275.618 153.038C282.412 153.038 287.949 147.501 287.949 140.708C287.949 133.915 282.412 128.377 275.618 128.377C268.825 128.377 263.288 133.915 263.288 140.708C263.288 147.501 268.825 153.038 275.618 153.038Z" fill="#2C60F5"/>
<path d="M566.503 309.978C573.296 309.978 578.833 304.44 578.833 297.647C578.833 290.854 573.296 285.317 566.503 285.317C559.71 285.317 554.172 290.854 554.172 297.647C554.172 304.44 559.71 309.978 566.503 309.978Z" fill="#2C60F5"/>
<path d="M431.574 240.494C424.781 240.494 419.244 246.031 419.244 252.824C419.244 259.618 424.781 265.155 431.574 265.155C438.367 265.155 443.904 259.618 443.904 252.824C443.904 246.031 438.367 240.494 431.574 240.494Z" fill="#2C60F5"/>
<path d="M566.503 265.155C573.296 265.155 578.833 259.618 578.833 252.824C578.833 246.031 573.296 240.494 566.503 240.494C559.71 240.494 554.172 246.031 554.172 252.824C554.172 259.618 559.71 265.155 566.503 265.155Z" fill="#2C60F5"/>
<path d="M700.795 175.497C707.588 175.497 713.126 169.96 713.126 163.166C713.126 156.373 707.588 150.836 700.795 150.836C694.002 150.836 688.465 156.373 688.465 163.166C688.465 169.96 694.002 175.497 700.795 175.497Z" fill="#2C60F5"/>
<path d="M790.294 220.296C797.104 220.296 802.624 214.776 802.624 207.966C802.624 201.156 797.104 195.635 790.294 195.635C783.484 195.635 777.963 201.156 777.963 207.966C777.963 214.776 783.484 220.296 790.294 220.296Z" fill="#2C60F5"/>
<path d="M778.011 477.057C778.011 483.85 783.548 489.388 790.341 489.388C797.134 489.388 802.672 483.85 802.672 477.057C802.672 470.264 797.134 464.727 790.341 464.727C783.548 464.727 778.011 470.264 778.011 477.057Z" fill="#2C60F5"/>
<path d="M688.465 297.647C688.465 304.44 694.002 309.978 700.795 309.978C707.588 309.978 713.126 304.44 713.126 297.647C713.126 290.854 707.588 285.317 700.795 285.317C694.002 285.317 688.465 290.854 688.465 297.647Z" fill="#2C60F5"/>
<path d="M566.519 152.592C560.696 152.592 555.958 157.33 555.958 163.152C555.958 168.975 560.696 173.713 566.519 173.713C572.341 173.713 577.079 168.975 577.079 163.152C577.079 157.33 572.341 152.592 566.519 152.592Z" fill="#2C60F5"/>
<path d="M454.626 240.971C460.448 240.971 465.187 236.233 465.187 230.411C465.187 224.588 460.448 219.85 454.626 219.85C448.803 219.85 444.065 224.588 444.065 230.411C444.065 236.233 448.803 240.971 454.626 240.971Z" fill="#2C60F5"/>
<path d="M409.868 240.971C415.69 240.971 420.428 236.233 420.428 230.411C420.428 224.588 415.69 219.85 409.868 219.85C404.045 219.85 399.307 224.588 399.307 230.411C399.307 236.233 404.045 240.971 409.868 240.971Z" fill="#2C60F5"/>
<path d="M107.085 230.411C107.085 224.588 102.347 219.85 96.5246 219.85C90.7018 219.85 85.9639 224.588 85.9639 230.411C85.9639 236.233 90.7018 240.971 96.5246 240.971C102.347 240.971 107.085 236.233 107.085 230.411Z" fill="#2C60F5"/>
<path d="M611.277 577.309C617.109 577.309 621.838 572.581 621.838 566.748C621.838 560.916 617.109 556.188 611.277 556.188C605.444 556.188 600.716 560.916 600.716 566.748C600.716 572.581 605.444 577.309 611.277 577.309Z" fill="#2C60F5"/>
<path d="M342.751 577.309C348.583 577.309 353.311 572.581 353.311 566.748C353.311 560.916 348.583 556.188 342.751 556.188C336.918 556.188 332.19 560.916 332.19 566.748C332.19 572.581 336.918 577.309 342.751 577.309Z" fill="#2C60F5"/>
<path d="M230.853 375.499C236.685 375.499 241.413 370.771 241.413 364.938C241.413 359.106 236.685 354.377 230.853 354.377C225.02 354.377 220.292 359.106 220.292 364.938C220.292 370.771 225.02 375.499 230.853 375.499Z" fill="#2C60F5"/>
<path d="M208.488 376.836C202.665 376.836 197.927 381.575 197.927 387.397C197.927 393.22 202.665 397.958 208.488 397.958C214.311 397.958 219.049 393.22 219.049 387.397C219.049 381.575 214.311 376.836 208.488 376.836Z" fill="#2C60F5"/>
<path d="M332.19 477.055C332.19 482.878 336.928 487.616 342.751 487.616C348.573 487.616 353.311 482.878 353.311 477.055C353.311 471.232 348.573 466.494 342.751 466.494C336.928 466.494 332.19 471.232 332.19 477.055Z" fill="#2C60F5"/>
<path d="M835.044 556.188C829.221 556.188 824.483 560.925 824.483 566.748C824.483 572.571 829.221 577.309 835.044 577.309C840.867 577.309 845.605 572.571 845.605 566.748C845.605 560.925 840.867 556.188 835.044 556.188Z" fill="#2C60F5"/>
<path d="M566.519 556.188C560.696 556.188 555.958 560.925 555.958 566.748C555.958 572.571 560.696 577.309 566.519 577.309C572.341 577.309 577.079 572.571 577.079 566.748C577.079 560.925 572.341 556.188 566.519 556.188Z" fill="#2C60F5"/>
<path d="M633.641 444.059C627.818 444.059 623.08 448.797 623.08 454.62C623.08 460.443 627.818 465.181 633.641 465.181C639.464 465.181 644.202 460.443 644.202 454.62C644.202 448.797 639.464 444.059 633.641 444.059Z" fill="#2C60F5"/>
<path d="M800.853 252.846C800.853 247.023 796.115 242.285 790.292 242.285C784.469 242.285 779.731 247.023 779.731 252.846C779.731 258.668 784.469 263.406 790.292 263.406C796.115 263.406 800.853 258.668 800.853 252.846Z" fill="#2C60F5"/>
<path d="M711.342 252.846C711.342 247.023 706.604 242.285 700.781 242.285C694.958 242.285 690.22 247.023 690.22 252.846C690.22 258.668 694.958 263.406 700.781 263.406C706.604 263.406 711.342 258.668 711.342 252.846Z" fill="#2C60F5"/>
<path d="M734.973 387.397C734.973 393.22 739.711 397.958 745.533 397.958C751.356 397.958 756.094 393.22 756.094 387.397C756.094 381.575 751.356 376.836 745.533 376.836C739.711 376.836 734.973 381.575 734.973 387.397Z" fill="#2C60F5"/>
<path d="M812.671 508.303C817.527 508.303 821.462 504.366 821.462 499.511C821.462 494.656 817.527 490.72 812.671 490.72C807.816 490.72 803.88 494.656 803.88 499.511C803.88 504.366 807.816 508.303 812.671 508.303Z" fill="#2C60F5"/>
<path d="M835.036 261.623C839.888 261.623 843.827 257.684 843.827 252.832C843.827 247.98 839.888 244.041 835.036 244.041C830.184 244.041 826.245 247.98 826.245 252.832C826.245 257.684 830.184 261.623 835.036 261.623Z" fill="#2C60F5"/>
<path d="M633.657 149.506C638.512 149.506 642.448 145.57 642.448 140.715C642.448 135.86 638.512 131.924 633.657 131.924C628.801 131.924 624.865 135.86 624.865 140.715C624.865 145.57 628.801 149.506 633.657 149.506Z" fill="#2C60F5"/>
<path d="M611.262 82.2599C616.115 82.2599 620.054 78.321 620.054 73.4687C620.054 68.6164 616.115 64.6775 611.262 64.6775C606.41 64.6775 602.471 68.6164 602.471 73.4687C602.471 78.321 606.41 82.2599 611.262 82.2599Z" fill="#2C60F5"/>
<path d="M544.146 149.506C549.001 149.506 552.937 145.57 552.937 140.715C552.937 135.86 549.001 131.924 544.146 131.924C539.291 131.924 535.355 135.86 535.355 140.715C535.355 145.57 539.291 149.506 544.146 149.506Z" fill="#2C60F5"/>
<path d="M477.006 216.8C481.858 216.8 485.797 212.861 485.797 208.008C485.797 203.156 481.858 199.217 477.006 199.217C472.153 199.217 468.214 203.156 468.214 208.008C468.214 212.861 472.153 216.8 477.006 216.8Z" fill="#2C60F5"/>
<path d="M365.131 194.365C369.986 194.365 373.922 190.429 373.922 185.573C373.922 180.718 369.986 176.782 365.131 176.782C360.275 176.782 356.34 180.718 356.34 185.573C356.34 190.429 360.275 194.365 365.131 194.365Z" fill="#2C60F5"/>
<path d="M409.883 266.476C405.031 266.476 401.092 270.414 401.092 275.267C401.092 280.119 405.031 284.058 409.883 284.058C414.735 284.058 418.674 280.119 418.674 275.267C418.674 270.414 414.735 266.476 409.883 266.476Z" fill="#2C60F5"/>
<path d="M222.012 95.8449C222.012 100.697 225.951 104.636 230.803 104.636C235.656 104.636 239.594 100.697 239.594 95.8449C239.594 90.9927 235.656 87.0537 230.803 87.0537C225.951 87.0537 222.012 90.9927 222.012 95.8449Z" fill="#2C60F5"/>
<path d="M51.788 194.365C56.6432 194.365 60.579 190.429 60.579 185.573C60.579 180.718 56.6432 176.782 51.788 176.782C46.9327 176.782 42.9966 180.718 42.9966 185.573C42.9966 190.429 46.9327 194.365 51.788 194.365Z" fill="#2C60F5"/>
<path d="M74.1525 171.941C79.0077 171.941 82.9435 168.005 82.9435 163.15C82.9435 158.295 79.0077 154.359 74.1525 154.359C69.2973 154.359 65.3611 158.295 65.3611 163.15C65.3611 168.005 69.2973 171.941 74.1525 171.941Z" fill="#2C60F5"/>
<path d="M253.232 127.071C258.084 127.071 262.023 123.132 262.023 118.28C262.023 113.428 258.084 109.489 253.232 109.489C248.38 109.489 244.441 113.428 244.441 118.28C244.441 123.132 248.38 127.071 253.232 127.071Z" fill="#2C60F5"/>
<path d="M163.728 37.3779C168.583 37.3779 172.519 33.4419 172.519 28.5867C172.519 23.7315 168.583 19.7957 163.728 19.7957C158.872 19.7957 154.936 23.7315 154.936 28.5867C154.936 33.4419 158.872 37.3779 163.728 37.3779Z" fill="#2C60F5"/>
<path d="M678.409 445.85C673.556 445.85 669.618 449.789 669.618 454.641C669.618 459.493 673.556 463.433 678.409 463.433C683.261 463.433 687.2 459.493 687.2 454.641C687.2 449.789 683.261 445.85 678.409 445.85Z" fill="#2C60F5"/>
<path d="M723.161 508.303C728.017 508.303 731.952 504.366 731.952 499.511C731.952 494.656 728.017 490.72 723.161 490.72C718.306 490.72 714.37 494.656 714.37 499.511C714.37 504.366 718.306 508.303 723.161 508.303Z" fill="#2C60F5"/>
<path d="M714.37 320.089C714.37 324.942 718.309 328.881 723.161 328.881C728.014 328.881 731.952 324.942 731.952 320.089C731.952 315.237 728.014 311.298 723.161 311.298C718.309 311.298 714.37 315.237 714.37 320.089Z" fill="#2C60F5"/>
<path d="M745.541 245.808C741.659 245.808 738.52 248.948 738.52 252.83C738.52 256.711 741.659 259.851 745.541 259.851C749.423 259.851 752.562 256.711 752.562 252.83C752.562 248.948 749.423 245.808 745.541 245.808Z" fill="#2C60F5"/>
<path d="M835.051 514.864C831.17 514.864 828.03 518.004 828.03 521.886C828.03 525.767 831.17 528.907 835.051 528.907C838.933 528.907 842.073 525.767 842.073 521.886C842.073 518.004 838.933 514.864 835.051 514.864Z" fill="#2C60F5"/>
<path d="M767.911 551.342C771.789 551.342 774.933 548.198 774.933 544.321C774.933 540.443 771.789 537.299 767.911 537.299C764.033 537.299 760.89 540.443 760.89 544.321C760.89 548.198 764.033 551.342 767.911 551.342Z" fill="#2C60F5"/>
<path d="M767.911 416.79C771.789 416.79 774.933 413.647 774.933 409.769C774.933 405.891 771.789 402.748 767.911 402.748C764.033 402.748 760.89 405.891 760.89 409.769C760.89 413.647 764.033 416.79 767.911 416.79Z" fill="#2C60F5"/>
<path d="M342.735 394.403C346.612 394.403 349.756 391.259 349.756 387.381C349.756 383.503 346.612 380.359 342.735 380.359C338.857 380.359 335.713 383.503 335.713 387.381C335.713 391.259 338.857 394.403 342.735 394.403Z" fill="#2C60F5"/>
<path d="M633.643 492.429C629.761 492.429 626.621 495.569 626.621 499.45C626.621 503.332 629.761 506.472 633.643 506.472C637.525 506.472 640.664 503.332 640.664 499.45C640.664 495.569 637.525 492.429 633.643 492.429Z" fill="#2C60F5"/>
<path d="M588.896 626.957C585.014 626.957 581.875 630.097 581.875 633.978C581.875 637.86 585.014 641 588.896 641C592.778 641 595.917 637.86 595.917 633.978C595.917 630.097 592.778 626.957 588.896 626.957Z" fill="#2C60F5"/>
<path d="M544.138 447.606C540.256 447.606 537.116 450.746 537.116 454.627C537.116 458.509 540.256 461.649 544.138 461.649C548.02 461.649 551.159 458.509 551.159 454.627C551.159 450.746 548.02 447.606 544.138 447.606Z" fill="#2C60F5"/>
<path d="M544.138 371.967C548.02 371.967 551.159 368.828 551.159 364.946C551.159 361.064 548.02 357.924 544.138 357.924C540.256 357.924 537.116 361.064 537.116 364.946C537.116 368.828 540.256 371.967 544.138 371.967Z" fill="#2C60F5"/>
<path d="M499.385 268.196C495.504 268.196 492.364 271.335 492.364 275.217C492.364 279.099 495.504 282.239 499.385 282.239C503.267 282.239 506.407 279.099 506.407 275.217C506.407 271.335 503.267 268.196 499.385 268.196Z" fill="#2C60F5"/>
<path d="M431.573 290.631C427.692 290.631 424.552 293.77 424.552 297.652C424.552 301.534 427.692 304.674 431.573 304.674C435.455 304.674 438.595 301.534 438.595 297.652C438.595 293.77 435.455 290.631 431.573 290.631Z" fill="#2C60F5"/>
<path d="M678.401 147.746C682.282 147.746 685.422 144.607 685.422 140.725C685.422 136.843 682.282 133.703 678.401 133.703C674.519 133.703 671.379 136.843 671.379 140.725C671.379 144.607 674.519 147.746 678.401 147.746Z" fill="#2C60F5"/>
<path d="M342.735 170.181C346.612 170.181 349.756 167.037 349.756 163.16C349.756 159.282 346.612 156.138 342.735 156.138C338.857 156.138 335.713 159.282 335.713 163.16C335.713 167.037 338.857 170.181 342.735 170.181Z" fill="#2C60F5"/>
<path d="M588.896 58.053C592.778 58.053 595.917 54.9134 595.917 51.0316C595.917 47.1498 592.778 44.01 588.896 44.01C585.014 44.01 581.875 47.1498 581.875 51.0316C581.875 54.9134 585.014 58.053 588.896 58.053Z" fill="#2C60F5"/>
<path d="M544.13 494.196C541.219 494.196 538.878 496.537 538.878 499.505C538.878 502.474 541.219 504.814 544.13 504.814C547.041 504.814 549.439 502.474 549.439 499.505C549.439 496.537 547.099 494.196 544.13 494.196Z" fill="#2C60F5"/>
<path d="M857.424 594.496C860.356 594.496 862.733 592.119 862.733 589.187C862.733 586.255 860.356 583.878 857.424 583.878C854.492 583.878 852.115 586.255 852.115 589.187C852.115 592.119 854.492 594.496 857.424 594.496Z" fill="#2C60F5"/>
<path d="M817.988 275.26C817.988 272.349 815.647 269.951 812.679 269.951C809.711 269.951 807.427 272.292 807.427 275.26C807.427 278.229 809.768 280.512 812.679 280.512C815.59 280.512 817.988 278.172 817.988 275.26Z" fill="#2C60F5"/>
<path d="M857.424 280.512C860.335 280.512 862.733 278.172 862.733 275.26C862.733 272.349 860.392 269.951 857.424 269.951C854.455 269.951 852.115 272.292 852.115 275.26C852.115 278.229 854.455 280.512 857.424 280.512Z" fill="#2C60F5"/>
<path d="M857.424 549.625C860.356 549.625 862.733 547.248 862.733 544.316C862.733 541.384 860.356 539.007 857.424 539.007C854.492 539.007 852.115 541.384 852.115 544.316C852.115 547.248 854.492 549.625 857.424 549.625Z" fill="#2C60F5"/>
<path d="M785.039 432.2C785.039 435.111 787.38 437.452 790.348 437.452C793.317 437.452 795.657 435.111 795.657 432.2C795.657 429.289 793.317 426.891 790.348 426.891C787.38 426.891 785.039 429.232 785.039 432.2Z" fill="#2C60F5"/>
<path d="M633.65 549.625C636.582 549.625 638.959 547.248 638.959 544.316C638.959 541.384 636.582 539.007 633.65 539.007C630.718 539.007 628.341 541.384 628.341 544.316C628.341 547.248 630.718 549.625 633.65 549.625Z" fill="#2C60F5"/>
<path d="M544.13 325.382C547.041 325.382 549.439 323.042 549.439 320.074C549.439 317.105 547.099 314.822 544.13 314.822C541.162 314.822 538.878 317.162 538.878 320.074C538.878 322.985 541.219 325.382 544.13 325.382Z" fill="#2C60F5"/>
<path d="M790.301 561.442C787.39 561.442 784.992 563.783 784.992 566.751C784.992 569.72 787.333 572.003 790.301 572.003C793.27 572.003 795.61 569.663 795.61 566.751C795.61 563.84 793.27 561.442 790.301 561.442Z" fill="#2C60F5"/>
<path d="M745.549 347.828C748.481 347.828 750.858 345.45 750.858 342.518C750.858 339.586 748.481 337.209 745.549 337.209C742.617 337.209 740.24 339.586 740.24 342.518C740.24 345.45 742.617 347.828 745.549 347.828Z" fill="#2C60F5"/>
<path d="M365.124 269.951C362.213 269.951 359.815 272.292 359.815 275.26C359.815 278.229 362.156 280.512 365.124 280.512C368.093 280.512 370.433 278.172 370.433 275.26C370.433 272.349 368.093 269.951 365.124 269.951Z" fill="#2C60F5"/>
<path d="M253.226 33.9015C256.158 33.9015 258.535 31.5244 258.535 28.5924C258.535 25.6603 256.158 23.2834 253.226 23.2834C250.294 23.2834 247.917 25.6603 247.917 28.5924C247.917 31.5244 250.294 33.9015 253.226 33.9015Z" fill="#2C60F5"/>
<path d="M230.862 11.4662C233.794 11.4662 236.171 9.08936 236.171 6.15731C236.171 3.22525 233.794 0.848389 230.862 0.848389C227.93 0.848389 225.553 3.22525 225.553 6.15731C225.553 9.08936 227.93 11.4662 230.862 11.4662Z" fill="#2C60F5"/>
<path d="M566.51 606.312C563.599 606.312 561.201 608.653 561.201 611.564C561.201 614.476 563.542 616.873 566.51 616.873C569.479 616.873 571.762 614.533 571.762 611.564C571.762 608.596 569.421 606.312 566.51 606.312Z" fill="#2C60F5"/>
<path d="M342.737 606.312C339.825 606.312 337.428 608.653 337.428 611.564C337.428 614.476 339.768 616.873 342.737 616.873C345.705 616.873 348.046 614.533 348.046 611.564C348.046 608.596 345.705 606.312 342.737 606.312Z" fill="#2C60F5"/>
<path d="M298.055 561.195C295.144 561.195 292.746 563.536 292.746 566.505C292.746 569.473 295.087 571.756 298.055 571.756C301.023 571.756 303.364 569.416 303.364 566.505C303.364 563.593 301.023 561.195 298.055 561.195Z" fill="#2C60F5"/>
<path d="M566.509 533.35C572.845 533.35 577.926 528.213 577.926 521.933C577.926 515.654 572.788 510.516 566.509 510.516C560.229 510.516 555.092 515.654 555.092 521.933C555.092 528.213 560.229 533.35 566.509 533.35Z" fill="#2C60F5"/>
<path d="M611.261 129.696C617.566 129.696 622.678 124.584 622.678 118.278C622.678 111.973 617.566 106.861 611.261 106.861C604.955 106.861 599.844 111.973 599.844 118.278C599.844 124.584 604.955 129.696 611.261 129.696Z" fill="#2C60F5"/>
<path d="M767.919 195.284C773.279 195.284 777.624 190.939 777.624 185.58C777.624 180.22 773.279 175.875 767.919 175.875C762.559 175.875 758.215 180.22 758.215 185.58C758.215 190.939 762.559 195.284 767.919 195.284Z" fill="#2C60F5"/>
<path d="M700.773 467.366C695.407 467.366 691.069 471.705 691.069 477.071C691.069 482.437 695.407 486.775 700.773 486.775C706.139 486.775 710.478 482.437 710.478 477.071C710.478 471.705 706.139 467.366 700.773 467.366Z" fill="#2C60F5"/>
<path d="M611.268 601.917C605.902 601.917 601.564 606.256 601.564 611.622C601.564 616.988 605.902 621.327 611.268 621.327C616.635 621.327 620.973 616.988 620.973 611.622C620.973 606.256 616.635 601.917 611.268 601.917Z" fill="#2C60F5"/>
<path d="M454.635 265.556C449.269 265.556 444.931 269.895 444.931 275.261C444.931 280.627 449.269 284.966 454.635 284.966C460.001 284.966 464.34 280.627 464.34 275.261C464.34 269.895 460.001 265.556 454.635 265.556Z" fill="#2C60F5"/>
<path d="M352.383 252.838C352.383 247.472 348.044 243.133 342.678 243.133C337.312 243.133 332.974 247.472 332.974 252.838C332.974 258.204 337.312 262.542 342.678 262.542C348.044 262.542 352.383 258.204 352.383 252.838Z" fill="#2C60F5"/>
<path d="M656.021 441.917C661.381 441.917 665.726 437.572 665.726 432.212C665.726 426.853 661.381 422.508 656.021 422.508C650.661 422.508 646.316 426.853 646.316 432.212C646.316 437.572 650.661 441.917 656.021 441.917Z" fill="#2C60F5"/>
<path d="M745.541 513.992C741.146 513.992 737.606 517.532 737.606 521.927C737.606 526.323 741.146 529.862 745.541 529.862C749.937 529.862 753.476 526.323 753.476 521.927C753.476 517.532 749.937 513.992 745.541 513.992Z" fill="#2C60F5"/>
<path d="M544.138 401.875C539.743 401.875 536.203 405.415 536.203 409.81C536.203 414.206 539.743 417.745 544.138 417.745C548.534 417.745 552.073 414.206 552.073 409.81C552.073 405.415 548.534 401.875 544.138 401.875Z" fill="#2C60F5"/>
<path d="M745.533 169.317C748.938 169.317 751.699 166.557 751.699 163.152C751.699 159.747 748.938 156.987 745.533 156.987C742.128 156.987 739.368 159.747 739.368 163.152C739.368 166.557 742.128 169.317 745.533 169.317Z" fill="#2C60F5"/>
<path d="M521.765 124.447C525.19 124.447 527.931 121.707 527.931 118.282C527.931 114.857 525.19 112.116 521.765 112.116C518.34 112.116 515.6 114.857 515.6 118.282C515.6 121.707 518.34 124.447 521.765 124.447Z" fill="#2C60F5"/>
<path d="M633.658 102.012C637.083 102.012 639.823 99.2719 639.823 95.8467C639.823 92.4216 637.083 89.6814 633.658 89.6814C630.233 89.6814 627.493 92.4216 627.493 95.8467C627.493 99.2719 630.233 102.012 633.658 102.012Z" fill="#2C60F5"/>
<path d="M253.24 79.6238C256.665 79.6238 259.405 76.8838 259.405 73.4586C259.405 70.0335 256.665 67.2935 253.24 67.2935C249.815 67.2935 247.074 70.0335 247.074 73.4586C247.074 76.8838 249.815 79.6238 253.24 79.6238Z" fill="#2C60F5"/>
<path d="M186.1 12.3305C189.505 12.3305 192.265 9.57014 192.265 6.16517C192.265 2.7602 189.505 0 186.1 0C182.695 0 179.934 2.7602 179.934 6.16517C179.934 9.57014 182.695 12.3305 186.1 12.3305Z" fill="#2C60F5"/>
<path d="M499.372 191.752C502.797 191.752 505.537 189.012 505.537 185.587C505.537 182.161 502.797 179.422 499.372 179.422C495.947 179.422 493.207 182.161 493.207 185.587C493.207 189.012 495.947 191.752 499.372 191.752Z" fill="#2C60F5"/>
<path d="M521.765 169.317C525.19 169.317 527.931 166.577 527.931 163.152C527.931 159.727 525.19 156.987 521.765 156.987C518.34 156.987 515.6 159.727 515.6 163.152C515.6 166.577 518.34 169.317 521.765 169.317Z" fill="#2C60F5"/>
<path d="M521.765 79.6238C525.19 79.6238 527.931 76.8838 527.931 73.4586C527.931 70.0335 525.19 67.2935 521.765 67.2935C518.34 67.2935 515.6 70.0335 515.6 73.4586C515.6 76.8838 518.34 79.6238 521.765 79.6238Z" fill="#2C60F5"/>
<path d="M544.14 55.4406C546.594 55.4406 548.535 53.4427 548.535 51.0451C548.535 48.6475 546.537 46.6494 544.14 46.6494C541.742 46.6494 539.744 48.6475 539.744 51.0451C539.744 53.4427 541.742 55.4406 544.14 55.4406Z" fill="#2C60F5"/>
<path d="M320.372 145.098C322.8 145.098 324.768 143.13 324.768 140.703C324.768 138.275 322.8 136.307 320.372 136.307C317.945 136.307 315.977 138.275 315.977 140.703C315.977 143.13 317.945 145.098 320.372 145.098Z" fill="#2C60F5"/>
<path d="M141.286 55.4406C143.741 55.4406 145.682 53.4427 145.682 51.0451C145.682 48.6475 143.684 46.6494 141.286 46.6494C138.889 46.6494 136.891 48.6475 136.891 51.0451C136.891 53.4427 138.889 55.4406 141.286 55.4406Z" fill="#2C60F5"/>
<path d="M307.853 487.051C304.657 490.248 302.716 494.643 302.716 499.495C302.716 509.2 310.594 517.078 320.298 517.078C330.003 517.078 337.881 509.2 337.881 499.495C337.881 489.791 330.003 481.913 320.298 481.913C315.446 481.913 311.05 483.854 307.911 487.051C310.422 484.482 312.021 481 312.021 477.118C312.021 469.354 305.741 463.018 297.921 463.018C290.1 463.018 283.82 469.297 283.82 477.118C283.82 484.939 290.1 491.218 297.921 491.218C301.802 491.218 305.285 489.677 307.853 487.108V487.051Z" fill="#2C60F5"/>
<path d="M118.92 509.55C112.127 509.55 106.59 515.087 106.59 521.88C106.59 528.674 112.127 534.211 118.92 534.211C125.714 534.211 131.251 528.674 131.251 521.88C131.251 515.087 125.714 509.55 118.92 509.55Z" fill="#2C60F5"/>
<path d="M51.7725 578.623C45.9497 578.623 41.2114 583.361 41.2114 589.183C41.2114 595.006 45.9497 599.744 51.7725 599.744C57.5952 599.744 62.3332 595.006 62.3332 589.183C62.3332 583.361 57.5952 578.623 51.7725 578.623Z" fill="#2C60F5"/>
<path d="M309.802 320.068C309.802 325.891 314.54 330.629 320.363 330.629C326.186 330.629 330.924 325.891 330.924 320.068C330.924 314.245 326.186 309.507 320.363 309.507C314.54 309.507 309.802 314.245 309.802 320.068Z" fill="#2C60F5"/>
<path d="M275.605 444.059C269.782 444.059 265.044 448.797 265.044 454.62C265.044 460.443 269.782 465.181 275.605 465.181C281.427 465.181 286.166 460.443 286.166 454.62C286.166 448.797 281.427 444.059 275.605 444.059Z" fill="#2C60F5"/>
<path d="M96.5246 465.181C102.347 465.181 107.085 460.443 107.085 454.62C107.085 448.797 102.347 444.059 96.5246 444.059C90.7018 444.059 85.9639 448.797 85.9639 454.62C85.9639 460.443 90.7018 465.181 96.5246 465.181Z" fill="#2C60F5"/>
<path d="M163.712 107.721C157.89 107.721 153.151 112.46 153.151 118.282C153.151 124.105 157.89 128.843 163.712 128.843C169.535 128.843 174.273 124.105 174.273 118.282C174.273 112.46 169.535 107.721 163.712 107.721Z" fill="#2C60F5"/>
<path d="M387.503 218.513C393.326 218.513 398.064 213.775 398.064 207.952C398.064 202.129 393.326 197.391 387.503 197.391C381.681 197.391 376.942 202.129 376.942 207.952C376.942 213.775 381.681 218.513 387.503 218.513Z" fill="#2C60F5"/>
<path d="M29.402 242.285C23.5793 242.285 18.8413 247.023 18.8413 252.846C18.8413 258.668 23.5793 263.406 29.402 263.406C35.2247 263.406 39.963 258.668 39.963 252.846C39.963 247.023 35.2247 242.285 29.402 242.285Z" fill="#2C60F5"/>
<path d="M163.728 468.273C158.875 468.273 154.936 472.212 154.936 477.064C154.936 481.917 158.875 485.856 163.728 485.856C168.58 485.856 172.519 481.917 172.519 477.064C172.519 472.212 168.58 468.273 163.728 468.273Z" fill="#2C60F5"/>
<path d="M342.743 440.997C347.598 440.997 351.534 437.061 351.534 432.206C351.534 427.351 347.598 423.415 342.743 423.415C337.887 423.415 333.952 427.351 333.952 432.206C333.952 437.061 337.887 440.997 342.743 440.997Z" fill="#2C60F5"/>
<path d="M29.3938 216.8C34.2461 216.8 38.1852 212.861 38.1852 208.008C38.1852 203.156 34.2461 199.217 29.3938 199.217C24.5416 199.217 20.6028 203.156 20.6028 208.008C20.6028 212.861 24.5416 216.8 29.3938 216.8Z" fill="#2C60F5"/>
<path d="M186.107 447.606C182.226 447.606 179.086 450.746 179.086 454.627C179.086 458.509 182.226 461.649 186.107 461.649C189.989 461.649 193.129 458.509 193.129 454.627C193.129 450.746 189.989 447.606 186.107 447.606Z" fill="#2C60F5"/>
<path d="M7.02141 237.487C10.9032 237.487 14.0428 234.347 14.0428 230.465C14.0428 226.583 10.9032 223.444 7.02141 223.444C3.13959 223.444 0 226.583 0 230.465C0 234.347 3.13959 237.487 7.02141 237.487Z" fill="#2C60F5"/>
<path d="M7.46952 268.42C3.5877 268.42 0.447754 271.559 0.447754 275.441C0.447754 279.323 3.5877 282.463 7.46952 282.463C11.3513 282.463 14.4909 279.323 14.4909 275.441C14.4909 271.559 11.3513 268.42 7.46952 268.42Z" fill="#2C60F5"/>
<path d="M96.5261 147.746C100.408 147.746 103.547 144.607 103.547 140.725C103.547 136.843 100.408 133.703 96.5261 133.703C92.6442 133.703 89.5046 136.843 89.5046 140.725C89.5046 144.607 92.6442 147.746 96.5261 147.746Z" fill="#2C60F5"/>
<path d="M253.226 426.938C250.315 426.938 247.917 429.278 247.917 432.247C247.917 435.215 250.257 437.499 253.226 437.499C256.194 437.499 258.535 435.158 258.535 432.247C258.535 429.336 256.194 426.938 253.226 426.938Z" fill="#2C60F5"/>
<path d="M275.604 494.196C272.692 494.196 270.352 496.537 270.352 499.505C270.352 502.474 272.692 504.814 275.604 504.814C278.515 504.814 280.913 502.474 280.913 499.505C280.913 496.537 278.572 494.196 275.604 494.196Z" fill="#2C60F5"/>
<path d="M118.912 258.077C121.823 258.077 124.221 255.737 124.221 252.768C124.221 249.8 121.88 247.516 118.912 247.516C115.943 247.516 113.66 249.857 113.66 252.768C113.66 255.679 116.001 258.077 118.912 258.077Z" fill="#2C60F5"/>
<path d="M91.2661 409.765C91.2661 412.676 93.6066 415.017 96.575 415.017C99.5435 415.017 101.884 412.676 101.884 409.765C101.884 406.854 99.5435 404.456 96.575 404.456C93.6066 404.456 91.2661 406.797 91.2661 409.765Z" fill="#2C60F5"/>
<path d="M74.1461 482.322C77.0574 482.322 79.455 479.981 79.455 477.013C79.455 474.045 77.1145 471.761 74.1461 471.761C71.1776 471.761 68.8372 474.102 68.8372 477.013C68.8372 479.924 71.1776 482.322 74.1461 482.322Z" fill="#2C60F5"/>
<path d="M266.425 387.384C266.425 380.077 260.488 374.197 253.239 374.197C245.989 374.197 240.052 380.134 240.052 387.384C240.052 394.633 245.989 400.57 253.239 400.57C260.488 400.57 266.425 394.633 266.425 387.384Z" fill="#2C60F5"/>
<path d="M342.735 533.303C349.041 533.303 354.152 528.191 354.152 521.886C354.152 515.58 349.041 510.469 342.735 510.469C336.43 510.469 331.318 515.58 331.318 521.886C331.318 528.191 336.43 533.303 342.735 533.303Z" fill="#2C60F5"/>
<path d="M62.7275 521.886C62.7275 528.222 67.8652 533.303 74.1447 533.303C80.4241 533.303 85.5618 528.165 85.5618 521.886C85.5618 515.606 80.4241 510.469 74.1447 510.469C67.8652 510.469 62.7275 515.606 62.7275 521.886Z" fill="#2C60F5"/>
<path d="M141.285 488.01C134.948 488.01 129.868 493.148 129.868 499.427C129.868 505.707 135.005 510.844 141.285 510.844C147.564 510.844 152.702 505.707 152.702 499.427C152.702 493.148 147.564 488.01 141.285 488.01Z" fill="#2C60F5"/>
<path d="M107.486 387.381C107.486 393.718 112.624 398.799 118.903 398.799C125.182 398.799 130.32 393.661 130.32 387.381C130.32 381.102 125.182 375.964 118.903 375.964C112.624 375.964 107.486 381.102 107.486 387.381Z" fill="#2C60F5"/>
<path d="M297.985 531.563C303.344 531.563 307.689 527.218 307.689 521.858C307.689 516.499 303.344 512.154 297.985 512.154C292.625 512.154 288.28 516.499 288.28 521.858C288.28 527.218 292.625 531.563 297.985 531.563Z" fill="#2C60F5"/>
<path d="M52.0688 552.179C56.4644 552.179 60.0034 548.64 60.0034 544.244C60.0034 539.848 56.4644 536.309 52.0688 536.309C47.6732 536.309 44.1338 539.848 44.1338 544.244C44.1338 548.64 47.6732 552.179 52.0688 552.179Z" fill="#2C60F5"/>
<path d="M320.365 581.25C315.969 581.25 312.43 584.789 312.43 589.185C312.43 593.581 315.969 597.12 320.365 597.12C324.76 597.12 328.299 593.581 328.299 589.185C328.299 584.789 324.76 581.25 320.365 581.25Z" fill="#2C60F5"/>
<path d="M118.914 350.452C123.31 350.452 126.849 346.912 126.849 342.517C126.849 338.121 123.31 334.582 118.914 334.582C114.519 334.582 110.979 338.121 110.979 342.517C110.979 346.912 114.519 350.452 118.914 350.452Z" fill="#2C60F5"/>
<path d="M29.3955 605.441C25.9703 605.441 23.2305 608.181 23.2305 611.606C23.2305 615.031 25.9703 617.772 29.3955 617.772C32.8206 617.772 35.5608 615.031 35.5608 611.606C35.5608 608.181 32.8206 605.441 29.3955 605.441Z" fill="#2C60F5"/>
<path d="M326.522 275.268C326.522 271.843 323.782 269.103 320.357 269.103C316.932 269.103 314.191 271.843 314.191 275.268C314.191 278.694 316.932 281.434 320.357 281.434C323.782 281.434 326.522 278.694 326.522 275.268Z" fill="#2C60F5"/>
<path d="M118.912 303.798C122.337 303.798 125.077 301.058 125.077 297.633C125.077 294.208 122.337 291.468 118.912 291.468C115.487 291.468 112.747 294.208 112.747 297.633C112.747 301.058 115.487 303.798 118.912 303.798Z" fill="#2C60F5"/>
<path d="M29.3932 571.153C31.8208 571.153 33.7889 569.185 33.7889 566.758C33.7889 564.33 31.8208 562.362 29.3932 562.362C26.9655 562.362 24.9978 564.33 24.9978 566.758C24.9978 569.185 26.9655 571.153 29.3932 571.153Z" fill="#2C60F5"/>
<path d="M74.1459 257.227C76.6006 257.227 78.5413 255.229 78.5413 252.831C78.5413 250.434 76.5435 248.436 74.1459 248.436C71.7484 248.436 69.7502 250.434 69.7502 252.831C69.7502 255.229 71.7484 257.227 74.1459 257.227Z" fill="#2C60F5"/>
<path d="M118.898 122.675C121.353 122.675 123.294 120.677 123.294 118.28C123.294 115.882 121.296 113.884 118.898 113.884C116.5 113.884 114.503 115.882 114.503 118.28C114.503 120.677 116.5 122.675 118.898 122.675Z" fill="#2C60F5"/>
<path d="M186.099 68.6202C188.154 68.6202 190.095 68.2206 191.979 67.5356C191.294 69.3623 190.894 71.3603 190.894 73.4154C190.894 83.1199 198.772 90.9978 208.476 90.9978C218.181 90.9978 226.059 83.1199 226.059 73.4154C226.059 68.5631 224.118 64.1675 220.921 60.9708C223.49 63.4825 226.972 65.0809 230.854 65.0809C238.618 65.0809 244.954 58.8015 244.954 50.9808C244.954 43.1601 238.675 36.8806 230.854 36.8806C223.033 36.8806 216.754 43.1601 216.754 50.9808C216.754 54.8626 218.352 58.3448 220.864 60.9136C217.667 57.7739 213.329 55.7759 208.476 55.7759C206.421 55.7759 204.48 56.1756 202.597 56.8606C203.282 55.0338 203.681 53.0359 203.681 50.9808C203.681 46.1285 201.74 41.733 198.543 38.5362C201.112 41.0479 204.594 42.6463 208.476 42.6463C216.24 42.6463 222.577 36.3669 222.577 28.5462C222.577 20.7255 216.297 14.446 208.476 14.446C200.656 14.446 194.376 20.7255 194.376 28.5462C194.376 32.428 195.917 35.9102 198.486 38.479C195.289 35.3393 190.951 33.3414 186.099 33.3414C176.394 33.3414 168.516 41.2191 168.516 50.9236C168.516 60.6282 176.394 68.5061 186.099 68.5061V68.6202Z" fill="#2C60F5"/>
</svg>
